<?xml version="1.0" encoding="UTF-8"?>
<svg xmlns="http://www.w3.org/2000/svg" viewBox="0 0 369.93 341.48">
  <defs>
    <style>
      .cls-1 {
        fill: #ad9551;
      }
    </style>
  </defs>
  <g id="Layer_1" data-name="Layer 1">
    <path d="m75.68,304.97h-7.1v-.19c1.04-.27,1.73-.61,2.07-1.04.35-.35.54-1.38.65-3.03l.84-17.49c0-.15.04-.69.04-.84,0-1.96-1.11-2.46-2.53-2.8v-.19h4.26c.58,0,.73.12.92.61l8.25,20.91c.5-1.42,3.38-8.32,8.63-20.75.19-.5.54-.77.96-.77h4.37v.19c-1.19.34-1.92.73-2.15,1.11-.27.38-.38,1.11-.38,2.15,0,1.46.15,7.63.5,18.53.04,1.34.27,2.19.65,2.57.27.31.92.58,1.96.84v.19h-7.56v-.19c.96-.23,1.65-.54,2.03-.92.38-.46.58-1.38.58-2.72,0-.27,0-1.04-.04-2.26l-.15-6.56-.23-10.4c-.27.73-.65,1.61-1.11,2.72-.46,1.07-1.42,3.34-2.84,6.79l-5.26,12.62h-1.15l-4.87-12.5-2.69-6.83-.96-2.53-.19,5.52-.31,8.59c-.08,2.72-.12,4.3-.12,4.72,0,1.42.19,2.34.61,2.76s1.19.73,2.3,1v.19Z"/>
    <path d="m112.11,305.92c-7,0-11.42-3.7-11.42-10.92,0-3.69,1.1-6.52,3.29-8.45s4.92-2.89,8.21-2.89c7.15,0,11.23,3.86,11.23,10.89s-4.24,11.37-11.31,11.37Zm.11-21.37c-3.67,0-9.04,1.83-9.04,10.09,0,7.07,3.59,10.38,8.93,10.38,2.61,0,4.77-.87,6.39-2.57,1.66-1.7,2.5-4.24,2.5-7.55,0-7.81-4.24-10.34-8.77-10.34Z"/>
    <path d="m137.49,305.92c-7,0-11.42-3.7-11.42-10.92,0-3.69,1.1-6.52,3.29-8.45s4.92-2.89,8.21-2.89c7.15,0,11.23,3.86,11.23,10.89s-4.24,11.37-11.31,11.37Zm.11-21.37c-3.67,0-9.04,1.83-9.04,10.09,0,7.07,3.59,10.38,8.93,10.38,2.61,0,4.77-.87,6.39-2.57,1.66-1.7,2.5-4.24,2.5-7.55,0-7.81-4.24-10.34-8.77-10.34Z"/>
    <path d="m151.03,305.03v-.16c1.65-.41,2.11-.59,2.3-1.25.19-.5.31-1.46.31-2.86v-11.99c0-1.71-.11-2.8-.31-3.21-.23-.53-1-.9-2.3-1.15v-.16h9.36c3.72,0,6.52.47,8.32,1.4,3.18,1.59,4.76,4.39,4.76,8.41,0,7.22-4.37,10.96-13.92,10.96h-8.52Zm4.83-3.95c0,1.09.08,1.84.23,2.21.12.34.38.56.81.65.58.16,1.53.22,2.95.22,7.21,0,11.09-3.3,11.09-9.87,0-3.24-.96-5.64-2.92-7.19-1.69-1.31-4.64-1.96-8.82-1.96-1.65,0-2.61.12-2.95.37-.27.19-.38.81-.38,1.87v13.7Z"/>
    <path d="m178.08,305.03v-.16c1-.25,1.69-.5,2.03-.78.38-.31.58-1.28.58-2.86v-13.7c0-1.28-.15-2.02-.5-2.3-.38-.31-1.07-.59-2.11-.81v-.16h14.46c.65,0,.84.09.84.59,0,.12-.11,1.15-.38,3.05h-.23c-.58-1.77-1.19-2.4-2.15-2.61-.46-.09-1.3-.16-2.57-.16h-4.07c-.88,0-1.07.25-1.07,1v7.66h3.11c1.42,0,2.38-.06,2.95-.16,1.34-.22,1.76-.62,2.22-1.96h.23v5.01h-.23c-.34-1.28-.92-1.74-2.49-1.96-.5-.06-1.38-.09-2.65-.09h-3.15v8c0,1.15.27,1.49,1.8,1.49h4.37c1.61,0,2.76-.22,3.45-.68.65-.44,1.27-1.28,1.88-2.49h.23c-.08,1.59-.19,2.68-.31,3.33-.12.59-.38.75-1.19.75h-15.08Z"/>
    <path d="m206.23,305.03h-7.9v-.16c1.11-.22,1.84-.56,2.19-.97.27-.37.42-1.34.42-2.9v-13.7c0-1.12-.15-1.81-.5-2.09-.38-.31-1.07-.59-2.11-.81v-.16h14.46c.73,0,.84.16.84.69,0,.65-.11,1.62-.38,2.93h-.23c-.65-1.87-1.19-2.37-2.15-2.58-.58-.09-1.46-.16-2.65-.16h-3.95c-.88,0-1.11.22-1.11.93v8.03h3.49c1.34,0,2.26-.03,2.76-.12,1.38-.25,1.8-.65,2.22-1.93h.19v4.95h-.19c-.35-1.25-.88-1.68-2.42-1.93-.46-.06-1.3-.09-2.53-.09h-3.53v6.1c0,1.09.04,1.81.12,2.15.08.34.23.62.5.78.42.31,1.23.59,2.46.87v.16Z"/>
    <path d="m224.61,305.03h-7.44v-.16c1.19-.22,1.92-.56,2.19-.97.27-.37.42-1.34.42-2.9v-12.83c0-1.56-.15-2.52-.42-2.86s-1-.65-2.19-.9v-.16h7.44v.16c-1.15.22-1.88.5-2.15.84-.31.44-.46,1.4-.46,2.9v12.89c0,1.56.15,2.52.46,2.93.31.37,1.04.69,2.15.9v.16Z"/>
    <path d="m236.39,305.03h-6.91v-.16c1.19-.25,1.92-.59,2.26-1.06.27-.37.38-1.4.38-3.08,0-1.34,0-3.36.04-6.01s.04-4.61.04-5.88c0-1.87-.11-2.99-.38-3.36-.31-.47-1.07-.81-2.3-1.06v-.16h3.99c.46,0,.81.13,1.04.37,8.71,10.02,13.62,15.75,14.77,17.22-.04-.96-.08-5.42-.15-13.36,0-1.65-.12-2.62-.35-2.96-.31-.5-1.07-.87-2.34-1.12v-.16h6.67v.16c-1.19.28-1.92.65-2.19,1.09-.27.34-.38,1.37-.38,3.08v16.66h-1.19l-16-18.71c.08,2.43.15,7.16.19,14.17,0,1.77.11,2.77.34,3.05.35.47,1.19.84,2.46,1.12v.16Z"/>
    <path d="m257.41,305.03v-.16c1-.25,1.69-.5,2.03-.78.38-.31.58-1.28.58-2.86v-13.7c0-1.28-.15-2.02-.5-2.3-.38-.31-1.07-.59-2.11-.81v-.16h14.46c.65,0,.84.09.84.59,0,.12-.12,1.15-.38,3.05h-.23c-.58-1.77-1.19-2.4-2.15-2.61-.46-.09-1.3-.16-2.57-.16h-4.07c-.88,0-1.07.25-1.07,1v7.66h3.11c1.42,0,2.38-.06,2.95-.16,1.34-.22,1.76-.62,2.22-1.96h.23v5.01h-.23c-.35-1.28-.92-1.74-2.49-1.96-.5-.06-1.38-.09-2.65-.09h-3.15v8c0,1.15.27,1.49,1.8,1.49h4.37c1.61,0,2.76-.22,3.45-.68.65-.44,1.27-1.28,1.88-2.49h.23c-.08,1.59-.19,2.68-.31,3.33-.12.59-.38.75-1.19.75h-15.08Z"/>
    <path d="m285.14,305.03h-7.48v-.16c1.15-.22,1.88-.53,2.19-.93.27-.37.42-1.34.42-2.9v-12.95c0-1.53-.15-2.46-.42-2.8-.34-.37-1.07-.65-2.19-.87v-.16h7.56c2.11,0,3.87.19,5.29.56,2.49.62,3.91,2.55,3.91,4.95,0,2.83-1.76,4.7-5.29,5.57.5.22.96.5,1.61,1.34.35.4.69.78.96,1.15.31.37.77,1,1.38,1.84l1.8,2.3c1.42,1.77,2.92,2.74,4.56,2.86v.16c-.73.09-1.46.16-2.19.16-1.34,0-2.26-.19-2.8-.59-.84-.65-1.73-1.62-2.68-2.96-2-2.83-3.18-4.45-3.57-4.89-.65-.75-1.23-.97-2.72-.97h-2.99v5.29c0,1.06.04,1.77.08,2.12.04.34.19.62.38.84.38.34,1.11.65,2.19.87v.16Zm-2.65-10.12h2.46c1.69,0,2.92-.13,3.72-.41,2.15-.62,3.26-2.43,3.26-4.7,0-1.9-.69-3.18-2.03-3.86-1.07-.53-2.65-.81-4.76-.81h-1.38c-1.04,0-1.27.22-1.27,1.12v8.66Z"/>
  </g>
  <g id="Layer_2" data-name="Layer 2">
    <path d="m164.48,228.72l55.98-.18c5.18-.94,13.82-3.18,22.86-9.12,9.78-6.42,15.07-13.92,17.64-17.64,6.61-9.56,9.22-19.02,10.98-25.2.82-2.87,1.37-5.29,1.73-7,2.08-12.31,1.13-21.94.07-27.92-.84-4.71-1.99-8.58-2.52-10.35-1.35-4.48-3.56-11.83-8.01-19.17-8.07-13.3-19.68-20.13-23.4-22.14-11.59-6.27-22.4-7.33-28.17-7.47-15.8.09-31.6.18-47.4.27.08,48.64.16,97.28.24,145.92Zm-32.22,4.62c1.35-.01,2.44-.1,3.18-.18,3.07-.32,6.15-.67,9.18-2.88.77-.56,3.74-2.79,4.86-6.78.3-1.07.39-2,.42-2.64-.12-46.02-.24-92.04-.36-138.06-6.23-.23-13.86.12-22.32,1.98-5.8,1.27-9.63,2.11-14.34,4.74-9.29,5.18-14.63,13.18-16.68,16.32-.97,1.48-1.7,2.76-2.19,3.66-.86.27-1.72.54-2.58.81-.07-.35-.14-.7-.21-1.05,1.49-4.63,5.42-14.55,15.12-22.32,6.27-5.02,12.67-7.33,15.84-8.28,4.02-1.21,7.38-1.59,12.24-2.16,7.66-.89,13.52-.9,15.13-.9,10.19-.02,32-.21,61.01-.36,8.4,0,24.11,1.23,40.56,10.44,5.79,3.24,25.93,14.92,35.28,39.6,5.62,14.84,4.75,27.55,4.08,36-.72,9.04-2.5,28.22-16.56,46.08-8.65,10.99-18.33,16.88-22.8,19.32-15.47,8.45-30.03,9.21-37.05,9.12-27.33-.12-54.66-.24-81.99-.36.06-.7.12-1.4.18-2.1Z"/>
    <path class="cls-1" d="m105.48,231.39c-13.43.07-26.86.13-40.3.2,0-.65-.01-1.3-.02-1.96,3.16-.04,6.31-.09,9.47-.14,1.28-.49,3.62-1.59,5.72-3.9,2.61-2.86,3.4-5.97,3.66-7.35,4.34-38.27,8.68-76.54,13.02-114.81-.48-1.9-1.29-4.56-2.7-7.56-.87-1.86-3.18-6.43-9.36-12.96-3.56-3.76-9.06-8.87-16.89-13.8-1.63-.78-4.08-1.83-7.17-2.64-7.54-1.98-13.49-1.18-13.53-1.68-.04-.44,4.54-1.59,9.72-1.89,13.01-.76,23.25,4.17,26.1,5.58,18.4,9.11,26.1,26.99,27.99,31.77,16.56,36.06,33.12,72.12,49.68,108.18,19.17-42.35,38.34-84.69,57.51-127.04,7.23,45.51,14.46,91.01,21.69,136.52.28,1.58.78,3.94,1.62,6.72,1.29,4.24,6.8,22.41,24.57,33.39,11.45,7.07,22.88,8,28.91,8.01-.01.54-.02,1.07-.03,1.61-4.7,1.01-13.09,2.15-23.03-.17-10.79-2.52-17.8-7.79-21.24-10.44-16.28-12.53-21.79-30.17-23.58-37.26-5.42-35.02-10.84-70.04-16.26-105.06-17.44,40.16-34.88,80.32-52.32,120.48-18.24-39.6-36.48-79.2-54.72-118.8-1.3,12.05-10.33,95.86-10.29,102.84.01,1.81.57,3.37.57,3.38,1.25,3.51,4.31,5.6,6.61,6.79,1.53.66,3.06,1.32,4.59,1.98Z"/>
  </g>
</svg>